<mxfile host="Electron" modified="2024-08-13T06:36:32.590Z" agent="Mozilla/5.0 (Windows NT 10.0; Win64; x64) AppleWebKit/537.36 (KHTML, like Gecko) draw.io/23.0.2 Chrome/120.0.6099.109 Electron/28.1.0 Safari/537.36" etag="-QKtYttwr0NSgrVvLjrM" version="23.0.2" type="device">
  <diagram id="C5RBs43oDa-KdzZeNtuy" name="Page-1">
    <mxGraphModel dx="976" dy="648" grid="1" gridSize="10" guides="1" tooltips="1" connect="1" arrows="1" fold="1" page="0" pageScale="1" pageWidth="827" pageHeight="1169" background="none" math="0" shadow="0">
      <root>
        <mxCell id="WIyWlLk6GJQsqaUBKTNV-0" />
        <mxCell id="WIyWlLk6GJQsqaUBKTNV-1" parent="WIyWlLk6GJQsqaUBKTNV-0" />
        <mxCell id="E39q2StaokrEGRj6IQ1M-42" value="" style="group" vertex="1" connectable="0" parent="WIyWlLk6GJQsqaUBKTNV-1">
          <mxGeometry x="60" y="90" width="750" height="750" as="geometry" />
        </mxCell>
        <mxCell id="E39q2StaokrEGRj6IQ1M-0" value="前端EUI" style="swimlane;startSize=38;rounded=0;shadow=0;glass=0;swimlaneFillColor=none;fillColor=#647687;strokeColor=#8F8F8F;fontColor=#ffffff;fontSize=16;labelBorderColor=none;" vertex="1" parent="E39q2StaokrEGRj6IQ1M-42">
          <mxGeometry width="250" height="750" as="geometry" />
        </mxCell>
        <mxCell id="E39q2StaokrEGRj6IQ1M-5" value="" style="edgeStyle=orthogonalEdgeStyle;rounded=0;orthogonalLoop=1;jettySize=auto;html=1;fontStyle=1;" edge="1" parent="E39q2StaokrEGRj6IQ1M-0" source="E39q2StaokrEGRj6IQ1M-3" target="E39q2StaokrEGRj6IQ1M-4">
          <mxGeometry relative="1" as="geometry" />
        </mxCell>
        <mxCell id="E39q2StaokrEGRj6IQ1M-3" value="打开EUI页面" style="rounded=1;whiteSpace=wrap;html=1;fontSize=12;fillColor=#1ba1e2;fontColor=#ffffff;strokeColor=none;fontStyle=1;" vertex="1" parent="E39q2StaokrEGRj6IQ1M-0">
          <mxGeometry x="65" y="60" width="120" height="30" as="geometry" />
        </mxCell>
        <mxCell id="E39q2StaokrEGRj6IQ1M-4" value="解析URL，取出参数：formCode,appId,appKey,&lt;br&gt;timestamp,sign" style="rounded=1;whiteSpace=wrap;html=1;fillColor=#1ba1e2;fontColor=#ffffff;strokeColor=none;fontStyle=1;" vertex="1" parent="E39q2StaokrEGRj6IQ1M-0">
          <mxGeometry x="50" y="110" width="150" height="50" as="geometry" />
        </mxCell>
        <mxCell id="E39q2StaokrEGRj6IQ1M-12" value="" style="edgeStyle=orthogonalEdgeStyle;rounded=0;orthogonalLoop=1;jettySize=auto;html=1;" edge="1" parent="E39q2StaokrEGRj6IQ1M-0" source="E39q2StaokrEGRj6IQ1M-9" target="E39q2StaokrEGRj6IQ1M-11">
          <mxGeometry relative="1" as="geometry" />
        </mxCell>
        <mxCell id="E39q2StaokrEGRj6IQ1M-9" value="取得accessToken" style="rounded=1;whiteSpace=wrap;html=1;fillColor=#1ba1e2;fontColor=#ffffff;strokeColor=none;fontStyle=1;" vertex="1" parent="E39q2StaokrEGRj6IQ1M-0">
          <mxGeometry x="50" y="180" width="150" height="30" as="geometry" />
        </mxCell>
        <mxCell id="E39q2StaokrEGRj6IQ1M-11" value="提交accessToken,&lt;br&gt;formCode,appId获取表单数据" style="rounded=1;whiteSpace=wrap;html=1;fillColor=#1ba1e2;fontColor=#ffffff;strokeColor=none;fontStyle=1;" vertex="1" parent="E39q2StaokrEGRj6IQ1M-0">
          <mxGeometry x="50" y="240" width="150" height="60" as="geometry" />
        </mxCell>
        <mxCell id="E39q2StaokrEGRj6IQ1M-15" value="渲染表单页面" style="rounded=1;whiteSpace=wrap;html=1;fillColor=#1ba1e2;fontColor=#ffffff;strokeColor=none;fontStyle=1;" vertex="1" parent="E39q2StaokrEGRj6IQ1M-0">
          <mxGeometry x="50" y="330" width="150" height="30" as="geometry" />
        </mxCell>
        <mxCell id="E39q2StaokrEGRj6IQ1M-17" value="Actor" style="shape=umlActor;verticalLabelPosition=bottom;verticalAlign=top;html=1;outlineConnect=0;" vertex="1" parent="E39q2StaokrEGRj6IQ1M-0">
          <mxGeometry x="10" y="400" width="30" height="60" as="geometry" />
        </mxCell>
        <mxCell id="E39q2StaokrEGRj6IQ1M-18" value="提交表单" style="rounded=1;whiteSpace=wrap;html=1;fillColor=#1ba1e2;fontColor=#ffffff;strokeColor=none;fontStyle=1;" vertex="1" parent="E39q2StaokrEGRj6IQ1M-0">
          <mxGeometry x="50" y="415" width="150" height="30" as="geometry" />
        </mxCell>
        <mxCell id="E39q2StaokrEGRj6IQ1M-33" value="组织已提交表单数据，触发事件，让父窗口获取数据" style="rounded=1;whiteSpace=wrap;html=1;fillColor=#1ba1e2;fontColor=#ffffff;strokeColor=none;fontStyle=1;" vertex="1" parent="E39q2StaokrEGRj6IQ1M-0">
          <mxGeometry x="50" y="630" width="150" height="50" as="geometry" />
        </mxCell>
        <mxCell id="E39q2StaokrEGRj6IQ1M-44" value="返回操作成功提示" style="text;strokeColor=none;fillColor=none;html=1;fontSize=12;fontStyle=1;verticalAlign=middle;align=center;labelBackgroundColor=none;fontColor=#8F8F8F;" vertex="1" parent="E39q2StaokrEGRj6IQ1M-0">
          <mxGeometry x="130" y="520" width="60" height="20" as="geometry" />
        </mxCell>
        <mxCell id="E39q2StaokrEGRj6IQ1M-1" value="后端服务" style="swimlane;startSize=38;fillColor=#647687;fontColor=#ffffff;strokeColor=#8F8F8F;fontSize=16;" vertex="1" parent="E39q2StaokrEGRj6IQ1M-42">
          <mxGeometry x="250" width="250" height="750" as="geometry" />
        </mxCell>
        <mxCell id="E39q2StaokrEGRj6IQ1M-6" value="校验签名，生成accessToken" style="rounded=1;whiteSpace=wrap;html=1;fillColor=#1ba1e2;fontColor=#ffffff;strokeColor=none;fontStyle=1;" vertex="1" parent="E39q2StaokrEGRj6IQ1M-1">
          <mxGeometry x="45" y="115" width="170" height="40" as="geometry" />
        </mxCell>
        <mxCell id="E39q2StaokrEGRj6IQ1M-8" value="签名验证" style="text;strokeColor=none;fillColor=none;html=1;fontSize=12;fontStyle=1;verticalAlign=middle;align=center;" vertex="1" parent="E39q2StaokrEGRj6IQ1M-1">
          <mxGeometry x="-30" y="110" width="60" height="20" as="geometry" />
        </mxCell>
        <mxCell id="E39q2StaokrEGRj6IQ1M-13" value="(1)校验accessToken&lt;br&gt;(2)根据formCode检索表单数据并返回" style="rounded=1;whiteSpace=wrap;html=1;fillColor=#1ba1e2;fontColor=#ffffff;strokeColor=none;fontStyle=1;align=left;" vertex="1" parent="E39q2StaokrEGRj6IQ1M-1">
          <mxGeometry x="50" y="244" width="150" height="50" as="geometry" />
        </mxCell>
        <mxCell id="E39q2StaokrEGRj6IQ1M-26" value="" style="edgeStyle=orthogonalEdgeStyle;rounded=0;orthogonalLoop=1;jettySize=auto;html=1;" edge="1" parent="E39q2StaokrEGRj6IQ1M-1" source="E39q2StaokrEGRj6IQ1M-19" target="E39q2StaokrEGRj6IQ1M-25">
          <mxGeometry relative="1" as="geometry" />
        </mxCell>
        <mxCell id="E39q2StaokrEGRj6IQ1M-19" value="(1)校验accessToken&lt;br&gt;(2)存储表单数据" style="rounded=1;whiteSpace=wrap;html=1;fillColor=#1ba1e2;fontColor=#ffffff;strokeColor=none;fontStyle=1;align=left;" vertex="1" parent="E39q2StaokrEGRj6IQ1M-1">
          <mxGeometry x="50" y="405" width="150" height="50" as="geometry" />
        </mxCell>
        <mxCell id="E39q2StaokrEGRj6IQ1M-21" value="获取表单数据" style="text;strokeColor=none;fillColor=none;html=1;fontSize=12;fontStyle=1;verticalAlign=middle;align=center;" vertex="1" parent="E39q2StaokrEGRj6IQ1M-1">
          <mxGeometry x="-30" y="250" width="60" height="20" as="geometry" />
        </mxCell>
        <mxCell id="E39q2StaokrEGRj6IQ1M-22" value="提交表单数据" style="text;strokeColor=none;fillColor=none;html=1;fontSize=12;fontStyle=1;verticalAlign=middle;align=center;" vertex="1" parent="E39q2StaokrEGRj6IQ1M-1">
          <mxGeometry x="-30" y="406" width="60" height="24" as="geometry" />
        </mxCell>
        <mxCell id="E39q2StaokrEGRj6IQ1M-28" value="" style="edgeStyle=orthogonalEdgeStyle;rounded=0;orthogonalLoop=1;jettySize=auto;html=1;" edge="1" parent="E39q2StaokrEGRj6IQ1M-1" source="E39q2StaokrEGRj6IQ1M-25" target="E39q2StaokrEGRj6IQ1M-27">
          <mxGeometry relative="1" as="geometry" />
        </mxCell>
        <mxCell id="E39q2StaokrEGRj6IQ1M-25" value="是否配置回调地址" style="rhombus;whiteSpace=wrap;html=1;align=center;fillColor=#1ba1e2;strokeColor=none;fontColor=#ffffff;rounded=1;fontStyle=1;" vertex="1" parent="E39q2StaokrEGRj6IQ1M-1">
          <mxGeometry x="50" y="490" width="150" height="40" as="geometry" />
        </mxCell>
        <mxCell id="E39q2StaokrEGRj6IQ1M-27" value="已提交的表单数据回调至&lt;br&gt;第三方系统后端服务" style="whiteSpace=wrap;html=1;fillColor=#1ba1e2;strokeColor=none;fontColor=#ffffff;rounded=1;fontStyle=1;" vertex="1" parent="E39q2StaokrEGRj6IQ1M-1">
          <mxGeometry x="50" y="560" width="150" height="40" as="geometry" />
        </mxCell>
        <mxCell id="E39q2StaokrEGRj6IQ1M-30" value="是" style="text;strokeColor=none;fillColor=none;html=1;fontSize=10;fontStyle=1;verticalAlign=middle;align=center;" vertex="1" parent="E39q2StaokrEGRj6IQ1M-1">
          <mxGeometry x="120" y="536" width="20" height="14" as="geometry" />
        </mxCell>
        <mxCell id="E39q2StaokrEGRj6IQ1M-36" value="" style="rounded=0;whiteSpace=wrap;html=1;dashed=1;fillColor=none;" vertex="1" parent="E39q2StaokrEGRj6IQ1M-1">
          <mxGeometry x="40" y="480" width="180" height="140" as="geometry" />
        </mxCell>
        <mxCell id="E39q2StaokrEGRj6IQ1M-37" value="异步线程" style="text;strokeColor=none;fillColor=none;fontSize=11;fontStyle=1;verticalAlign=middle;align=center;fontColor=#113ca2;" vertex="1" parent="E39q2StaokrEGRj6IQ1M-1">
          <mxGeometry x="38" y="482" width="60" height="10" as="geometry" />
        </mxCell>
        <mxCell id="E39q2StaokrEGRj6IQ1M-40" value="step2" style="text;strokeColor=none;fillColor=none;fontSize=9;fontStyle=1;verticalAlign=middle;align=center;html=1;fontColor=#0000FF;" vertex="1" parent="E39q2StaokrEGRj6IQ1M-1">
          <mxGeometry y="445" width="40" height="10" as="geometry" />
        </mxCell>
        <mxCell id="E39q2StaokrEGRj6IQ1M-39" value="step1" style="text;strokeColor=none;fillColor=none;fontSize=9;fontStyle=1;verticalAlign=middle;align=center;html=1;fontColor=#0000FF;" vertex="1" parent="E39q2StaokrEGRj6IQ1M-1">
          <mxGeometry x="120" y="461" width="38" height="14" as="geometry" />
        </mxCell>
        <mxCell id="E39q2StaokrEGRj6IQ1M-41" value="返回accessToken" style="text;strokeColor=none;fillColor=none;html=1;fontSize=12;fontStyle=1;verticalAlign=middle;align=center;labelBackgroundColor=none;fontColor=#8F8F8F;" vertex="1" parent="E39q2StaokrEGRj6IQ1M-1">
          <mxGeometry x="38" y="176" width="60" height="20" as="geometry" />
        </mxCell>
        <mxCell id="E39q2StaokrEGRj6IQ1M-43" value="返回表单代码数据" style="text;strokeColor=none;fillColor=none;html=1;fontSize=12;fontStyle=1;verticalAlign=middle;align=center;labelBackgroundColor=none;fontColor=#8F8F8F;" vertex="1" parent="E39q2StaokrEGRj6IQ1M-1">
          <mxGeometry x="30" y="330" width="60" height="20" as="geometry" />
        </mxCell>
        <mxCell id="E39q2StaokrEGRj6IQ1M-2" value="第三方系统" style="swimlane;startSize=38;arcSize=15;fillColor=#6d8764;strokeColor=#8F8F8F;fontSize=16;fontColor=#ffffff;" vertex="1" parent="E39q2StaokrEGRj6IQ1M-42">
          <mxGeometry x="500" width="250" height="750" as="geometry" />
        </mxCell>
        <mxCell id="E39q2StaokrEGRj6IQ1M-31" value="后端服务：处理回调的表单数据" style="whiteSpace=wrap;html=1;fillColor=#d80073;strokeColor=none;fontColor=#ffffff;rounded=1;fontStyle=1;" vertex="1" parent="E39q2StaokrEGRj6IQ1M-2">
          <mxGeometry x="50" y="560" width="150" height="40" as="geometry" />
        </mxCell>
        <mxCell id="E39q2StaokrEGRj6IQ1M-45" value="前端服务：处理EUI页面触发的表单数据回调事件" style="whiteSpace=wrap;html=1;fillColor=#6a00ff;strokeColor=none;fontColor=#ffffff;rounded=1;fontStyle=1;" vertex="1" parent="E39q2StaokrEGRj6IQ1M-2">
          <mxGeometry x="50" y="635" width="150" height="40" as="geometry" />
        </mxCell>
        <mxCell id="E39q2StaokrEGRj6IQ1M-7" value="" style="edgeStyle=orthogonalEdgeStyle;rounded=0;orthogonalLoop=1;jettySize=auto;html=1;" edge="1" parent="E39q2StaokrEGRj6IQ1M-42" source="E39q2StaokrEGRj6IQ1M-4" target="E39q2StaokrEGRj6IQ1M-6">
          <mxGeometry relative="1" as="geometry" />
        </mxCell>
        <mxCell id="E39q2StaokrEGRj6IQ1M-10" style="edgeStyle=orthogonalEdgeStyle;rounded=0;orthogonalLoop=1;jettySize=auto;html=1;entryX=1;entryY=0.5;entryDx=0;entryDy=0;exitX=0.5;exitY=1;exitDx=0;exitDy=0;" edge="1" parent="E39q2StaokrEGRj6IQ1M-42" source="E39q2StaokrEGRj6IQ1M-6" target="E39q2StaokrEGRj6IQ1M-9">
          <mxGeometry relative="1" as="geometry" />
        </mxCell>
        <mxCell id="E39q2StaokrEGRj6IQ1M-14" value="" style="edgeStyle=orthogonalEdgeStyle;rounded=0;orthogonalLoop=1;jettySize=auto;html=1;" edge="1" parent="E39q2StaokrEGRj6IQ1M-42" source="E39q2StaokrEGRj6IQ1M-11" target="E39q2StaokrEGRj6IQ1M-13">
          <mxGeometry relative="1" as="geometry" />
        </mxCell>
        <mxCell id="E39q2StaokrEGRj6IQ1M-16" style="edgeStyle=orthogonalEdgeStyle;rounded=0;orthogonalLoop=1;jettySize=auto;html=1;entryX=1.003;entryY=0.577;entryDx=0;entryDy=0;entryPerimeter=0;exitX=0.5;exitY=1;exitDx=0;exitDy=0;" edge="1" parent="E39q2StaokrEGRj6IQ1M-42" source="E39q2StaokrEGRj6IQ1M-13" target="E39q2StaokrEGRj6IQ1M-15">
          <mxGeometry relative="1" as="geometry" />
        </mxCell>
        <mxCell id="E39q2StaokrEGRj6IQ1M-20" value="" style="edgeStyle=orthogonalEdgeStyle;rounded=0;orthogonalLoop=1;jettySize=auto;html=1;" edge="1" parent="E39q2StaokrEGRj6IQ1M-42" source="E39q2StaokrEGRj6IQ1M-18" target="E39q2StaokrEGRj6IQ1M-19">
          <mxGeometry relative="1" as="geometry" />
        </mxCell>
        <mxCell id="E39q2StaokrEGRj6IQ1M-38" value="" style="endArrow=classic;html=1;rounded=0;entryX=0.5;entryY=0;entryDx=0;entryDy=0;exitX=0;exitY=0.75;exitDx=0;exitDy=0;edgeStyle=orthogonalEdgeStyle;" edge="1" parent="E39q2StaokrEGRj6IQ1M-42" source="E39q2StaokrEGRj6IQ1M-19" target="E39q2StaokrEGRj6IQ1M-33">
          <mxGeometry width="50" height="50" relative="1" as="geometry">
            <mxPoint x="370" y="800" as="sourcePoint" />
            <mxPoint x="420" y="750" as="targetPoint" />
            <Array as="points">
              <mxPoint x="220" y="443" />
              <mxPoint x="220" y="540" />
              <mxPoint x="125" y="540" />
            </Array>
          </mxGeometry>
        </mxCell>
        <mxCell id="E39q2StaokrEGRj6IQ1M-32" value="" style="edgeStyle=orthogonalEdgeStyle;rounded=0;orthogonalLoop=1;jettySize=auto;html=1;" edge="1" parent="E39q2StaokrEGRj6IQ1M-42" source="E39q2StaokrEGRj6IQ1M-27" target="E39q2StaokrEGRj6IQ1M-31">
          <mxGeometry relative="1" as="geometry" />
        </mxCell>
        <mxCell id="E39q2StaokrEGRj6IQ1M-46" value="" style="edgeStyle=orthogonalEdgeStyle;rounded=0;orthogonalLoop=1;jettySize=auto;html=1;entryX=0;entryY=0.5;entryDx=0;entryDy=0;" edge="1" parent="E39q2StaokrEGRj6IQ1M-42" source="E39q2StaokrEGRj6IQ1M-33" target="E39q2StaokrEGRj6IQ1M-45">
          <mxGeometry relative="1" as="geometry" />
        </mxCell>
      </root>
    </mxGraphModel>
  </diagram>
</mxfile>
